<?xml version="1.0" encoding="iso-8859-1"?>
<!-- Generator: Adobe Illustrator 19.0.0, SVG Export Plug-In . SVG Version: 6.00 Build 0)  -->
<svg version="1.1" id="Capa_1" xmlns="http://www.w3.org/2000/svg" xmlns:xlink="http://www.w3.org/1999/xlink" x="0px" y="0px"
	 viewBox="0 0 512.001 512.001" style="enable-background:new 0 0 512.001 512.001;" xml:space="preserve">
<g>
	<path style="fill:#737882;" d="M17.748,494.063L17.748,494.063c10.361,10.361,27.16,10.361,37.52,0l100.887-100.887l-37.521-37.521
		L17.748,456.542C7.387,466.903,7.387,483.702,17.748,494.063z"/>
	<path style="fill:#737882;" d="M494.254,494.063L494.254,494.063c-10.361,10.361-27.16,10.361-37.52,0L355.845,393.175
		l37.52-37.521l100.887,100.887C504.615,466.903,504.615,483.702,494.254,494.063z"/>
</g>
<path style="fill:#78D2FA;" d="M457.86,10.186L457.86,10.186L115.514,352.532l43.543,43.543l173.254-132.242
	C411.4,203.466,457.822,109.679,457.86,10.186z"/>
<g>
	<path style="fill:#4BB9F5;" d="M256.001,212.045L54.142,10.186l0,0c0.039,99.493,46.461,193.281,125.549,253.648l13.907,10.615
		L256.001,212.045z"/>
	<polygon style="fill:#4BB9F5;" points="256.001,322.079 352.945,396.075 396.489,352.532 318.405,274.448 	"/>
</g>
<path d="M293.286,241.5c2.558,0,5.115-0.976,7.066-2.927l76.056-76.056c3.902-3.902,3.902-10.23,0-14.133
	c-3.903-3.901-10.229-3.901-14.133,0l-76.056,76.056c-3.902,3.902-3.902,10.23,0,14.133
	C288.171,240.524,290.729,241.5,293.286,241.5z"/>
<path d="M262.097,262.694c1.858,1.859,4.436,2.929,7.064,2.929c2.639,0,5.206-1.069,7.065-2.929
	c1.869-1.858,2.928-4.436,2.928-7.064c0-2.628-1.059-5.206-2.928-7.065c-1.859-1.859-4.427-2.928-7.065-2.928
	c-2.628,0-5.206,1.068-7.064,2.928c-1.859,1.859-2.929,4.437-2.929,7.065C259.169,258.258,260.238,260.836,262.097,262.694z"/>
<path d="M501.32,449.476l-93.821-93.821l8.449-8.449c3.902-3.902,3.902-10.23,0-14.133c-3.901-3.9-10.227-3.902-14.133,0
	l-5.326,5.326l-62.94-62.94l4.825-3.682c40.02-30.546,72.977-70.541,95.311-115.661c22.334-45.119,34.149-95.581,34.168-145.925
	c0.002-4.042-2.433-7.688-6.167-9.236c-3.736-1.547-8.035-0.694-10.893,2.166L256.002,197.911l-58.594-58.593
	c-3.903-3.901-10.229-3.901-14.133,0c-3.902,3.902-3.902,10.23,0,14.133l58.594,58.593L192.713,261.2l-6.958-5.311
	C116.342,202.907,72.419,121.852,65.192,35.368l69.964,69.964c3.903,3.901,10.229,3.901,14.133,0c3.902-3.902,3.902-10.23,0-14.133
	L61.209,3.12c-2.859-2.859-7.157-3.712-10.893-2.166c-3.733,1.548-6.169,5.193-6.167,9.236
	c0.019,50.345,11.834,100.805,34.168,145.925c22.334,45.12,55.291,85.115,95.311,115.661l4.826,3.684l-62.94,62.94l-5.327-5.327
	c-3.903-3.901-10.229-3.901-14.133,0c-3.902,3.902-3.902,10.23,0,14.133l8.449,8.449l-93.821,93.821
	c-14.241,14.241-14.241,37.413,0,51.654c0,0,0,0,0.001,0c7.12,7.12,16.472,10.679,25.825,10.679s18.706-3.56,25.827-10.679
	l93.822-93.822l6.521,6.521c1.952,1.951,4.509,2.927,7.066,2.927s5.115-0.976,7.066-2.927c3.902-3.902,3.902-10.23,0-14.133
	l-2.609-2.609L256,334.649l81.799,62.437l-2.609,2.609c-3.902,3.902-3.902,10.23,0,14.133c1.952,1.951,4.509,2.927,7.066,2.927
	c2.557,0,5.115-0.976,7.066-2.927l6.521-6.521l93.823,93.822c7.12,7.12,16.473,10.679,25.825,10.679s18.706-3.559,25.826-10.679
	c0.001,0,0.001,0,0.001,0C515.562,486.889,515.562,463.717,501.32,449.476z M427.554,450.75l23.388-23.388l16.895,16.895
	l-23.387,23.388L427.554,450.75z M396.526,419.722l23.388-23.388l16.895,16.895l-23.388,23.388L396.526,419.722z M129.647,352.532
	l111.485-111.486l21.935-21.935c0.001-0.001,0.002-0.003,0.004-0.004L446.811,35.368c-7.226,86.484-51.15,167.539-120.563,220.521
	L159.943,382.827l-14.236-14.235l-1.317-1.317L129.647,352.532z M98.582,436.618l-23.388-23.389l16.895-16.895l23.388,23.388
	L98.582,436.618z M67.555,467.645l-23.388-23.388l16.895-16.895l23.388,23.389L67.555,467.645z M24.814,486.998L24.814,486.998
	c-6.448-6.448-6.448-16.94,0.001-23.388l5.219-5.219l23.388,23.388l-5.219,5.219C41.756,493.443,31.264,493.445,24.814,486.998z
	 M129.61,405.59l-23.388-23.388l12.415-12.415l23.389,23.388L129.61,405.59z M297.734,302.796l19.786-15.102l64.837,64.838
	l-16.06,16.06l-14.236,14.235l-79.588-60.749L297.734,302.796z M380.176,382.978l13.191-13.191l12.414,12.414l-23.388,23.388
	l-12.415-12.415L380.176,382.978z M487.188,486.998c-6.45,6.447-16.94,6.449-23.388,0l-5.219-5.219l23.387-23.388l5.219,5.219
	C493.636,470.056,493.636,480.549,487.188,486.998z"/>
<path d="M165.713,131.743c2.628,0,5.196-1.068,7.065-2.928c1.858-1.859,2.928-4.436,2.928-7.065c0-2.628-1.069-5.206-2.928-7.064
	c-1.859-1.859-4.437-2.929-7.065-2.929c-2.638,0-5.216,1.069-7.075,2.929c-1.859,1.858-2.918,4.436-2.918,7.064
	c0,2.629,1.059,5.206,2.918,7.065C160.506,130.675,163.074,131.743,165.713,131.743z"/>
<path d="M116.201,128.992c-3.902,3.902-3.902,10.23,0,14.133l67.071,67.071c1.952,1.951,4.509,2.927,7.066,2.927
	s5.115-0.976,7.066-2.927c3.902-3.902,3.902-10.23,0-14.133l-67.071-67.071C126.43,125.091,120.105,125.091,116.201,128.992z"/>
<g>
</g>
<g>
</g>
<g>
</g>
<g>
</g>
<g>
</g>
<g>
</g>
<g>
</g>
<g>
</g>
<g>
</g>
<g>
</g>
<g>
</g>
<g>
</g>
<g>
</g>
<g>
</g>
<g>
</g>
</svg>
