<svg height="480pt" viewBox="-135 0 479 480" width="480pt" xmlns="http://www.w3.org/2000/svg" fill="white"><path d="m80.5 320h-8v-296c0-13.253906-10.746094-24-24-24s-24 10.746094-24 24v296h-8c-8.835938 0-16 7.164062-16 16v16c0 8.835938 7.164062 16 16 16h8v88c0 13.253906 10.746094 24 24 24s24-10.746094 24-24v-88h8c8.835938 0 16-7.164062 16-16v-16c0-8.835938-7.164062-16-16-16zm-24-200h-16v-56h16zm-16 16h16v16h-16zm0-112c0-4.417969 3.582031-8 8-8s8 3.582031 8 8v24h-16zm0 144h16v152h-16zm16 267.054688-16-8v-14.109376l16 8zm0-32-16-8v-14.109376l16 8zm-8 60.945312c-4.417969 0-8-3.582031-8-8v-11.054688l16 8v3.054688c0 4.417969-3.582031 8-8 8zm8-92.945312-6.113281-3.054688h6.113281zm-40-19.054688v-16h64v16zm0 0"/><path d="m192.5 320h-8v-296c0-13.253906-10.746094-24-24-24s-24 10.746094-24 24v296h-8c-8.835938 0-16 7.164062-16 16v16c0 8.835938 7.164062 16 16 16h8v88c0 13.253906 10.746094 24 24 24s24-10.746094 24-24v-88h8c8.835938 0 16-7.164062 16-16v-16c0-8.835938-7.164062-16-16-16zm-24-200h-16v-56h16zm-16 16h16v16h-16zm0-112c0-4.417969 3.582031-8 8-8s8 3.582031 8 8v24h-16zm0 144h16v152h-16zm16 267.054688-16-8v-14.109376l16 8zm0-32-16-8v-14.109376l16 8zm-8 60.945312c-4.417969 0-8-3.582031-8-8v-11.054688l16 8v3.054688c0 4.417969-3.582031 8-8 8zm8-92.945312-6.113281-3.054688h6.113281zm-40-19.054688v-16h64v16zm0 0"/></svg>
