<?xml version="1.0" encoding="iso-8859-1"?>
<!-- Generator: Adobe Illustrator 19.0.0, SVG Export Plug-In . SVG Version: 6.00 Build 0)  -->
<svg version="1.1" id="Capa_1" xmlns="http://www.w3.org/2000/svg" xmlns:xlink="http://www.w3.org/1999/xlink" x="0px" y="0px"
	 viewBox="0 0 512.002 512.002" style="enable-background:new 0 0 512.002 512.002;" xml:space="preserve">
<path style="fill:#737882;" d="M395.498,322h-17.5h-37.546v-65.999H170.047V322h-9.983H116.5c-43.907,0-79.499,35.593-79.499,79.499
	v100.499h437.997V401.5C474.997,357.593,439.404,322,395.498,322z"/>
<path style="fill:#878791;" d="M362.385,118.612c0,75.337-47.631,164.212-106.386,164.212s-106.386-88.874-106.386-164.212
	S197.243,10.003,255.999,10.003S362.385,43.275,362.385,118.612z"/>
<g>
	<path style="fill:#BEBEBE;" d="M227.86,282.824l-8.276,83.998C217.464,388.344,234.372,407,255.998,407l0,0
		c21.626,0,38.535-18.656,36.414-40.178l-8.276-83.998"/>
	<path style="fill:#BEBEBE;" d="M148.871,148.093L148.871,148.093c-34.311,55.802-79.309,104.275-132.41,142.635l0,0
		c-8.528,6.16-8.63,18.825-0.204,25.123l86.609,64.728c6.49,4.851,15.615,3.92,20.993-2.141l6.35-7.157
		c29.136-32.838,51.049-71.428,64.32-113.273l0,0L148.871,148.093z"/>
	<path style="fill:#BEBEBE;" d="M363.131,148.093L363.131,148.093c34.312,55.803,79.309,104.275,132.41,142.635l0,0
		c8.528,6.16,8.63,18.825,0.204,25.123l-86.609,64.728c-6.49,4.851-15.615,3.92-20.993-2.141l-6.35-7.157
		c-29.136-32.838-51.049-71.428-64.32-113.273l0,0L363.131,148.093z"/>
</g>
<path d="M501.397,282.621c-11.099-8.018-21.996-16.613-32.387-25.55c-4.187-3.602-10.501-3.125-14.102,1.062
	c-3.601,4.188-3.125,10.502,1.062,14.103c10.818,9.304,22.162,18.252,33.716,26.599c1.995,1.44,2.307,3.428,2.316,4.484
	c0.008,1.057-0.271,3.049-2.243,4.522l-86.609,64.729c-2.309,1.725-5.614,1.389-7.525-0.768l-6.351-7.157
	c-28.388-31.995-49.338-68.89-62.269-109.66c-0.176-0.555-0.405-1.077-0.663-1.577c18.074-22.262,31.893-51.767,39.488-82.658
	c11.186,16.623,23.382,32.634,36.413,47.777c1.978,2.298,4.772,3.477,7.584,3.477c2.31,0,4.63-0.795,6.519-2.42
	c4.186-3.603,4.659-9.917,1.057-14.103c-16.838-19.566-32.231-40.637-45.752-62.625c-0.194-0.316-0.405-0.614-0.627-0.9
	c0.896-7.839,1.363-15.651,1.363-23.344c0-38.099-11.89-69.188-34.385-89.91C317.619,9.927,289.265,0.003,255.999,0.003
	s-61.622,9.924-82.002,28.698c-22.495,20.722-34.385,51.813-34.385,89.91c0,7.694,0.467,15.508,1.363,23.348
	c-0.221,0.285-0.43,0.582-0.623,0.896C106.558,197.815,62.904,244.84,10.604,282.621c-6.671,4.82-10.536,12.305-10.603,20.535
	c-0.067,8.23,3.676,15.776,10.269,20.704l33.722,25.203C33.008,364.254,27.001,382.64,27.001,401.5v100.499c0,5.522,4.477,10,10,10
	h437.997c5.523,0,10-4.478,10-10V401.5c0-18.808-6.008-37.264-16.981-52.443l33.716-25.198c6.593-4.928,10.335-12.474,10.269-20.704
	C511.933,294.926,508.069,287.441,501.397,282.621z M282.462,367.802c0.745,7.564-1.656,14.832-6.761,20.465
	C270.597,393.899,263.6,397,255.999,397c-7.601,0-14.598-3.102-19.702-8.733c-5.105-5.633-7.506-12.9-6.761-20.465l7.645-77.591
	c6.11,1.7,12.392,2.612,18.818,2.612s12.709-0.912,18.818-2.612L282.462,367.802z M169.463,68.002h76.536v28h-84.405
	c-0.118,0-0.232,0.014-0.348,0.018C162.899,85.243,165.741,75.971,169.463,68.002z M338.172,192.001h-72.173v-28h80.831
	C344.575,173.5,341.668,182.907,338.172,192.001z M311.307,240.097c-0.43-0.056-0.864-0.095-1.309-0.095h-44v-28h63.26
	c-2.072,4.042-4.266,7.973-6.576,11.77C319.07,229.706,315.263,235.156,311.307,240.097z M352.385,118.611
	c0,8.296-0.621,16.815-1.802,25.39h-84.584v-28h84.405c0.667,0,1.317-0.068,1.948-0.193
	C352.367,116.738,352.385,117.664,352.385,118.611z M350.752,96.019c-0.117-0.004-0.231-0.018-0.348-0.018h-84.405v-28h76.536
	C346.257,75.971,349.099,85.243,350.752,96.019z M161.594,116.002h84.405v28h-84.584c-1.181-8.575-1.802-17.094-1.802-25.39
	c0-0.947,0.018-1.873,0.033-2.803C160.276,115.933,160.927,116.002,161.594,116.002z M245.999,164.002v28h-72.173
	c-3.496-9.094-6.403-18.501-8.658-28H245.999z M245.999,212.001v28h-45.387c-3.928-4.915-7.709-10.334-11.297-16.231
	c-2.31-3.796-4.504-7.728-6.576-11.77h63.259V212.001z M245.999,260.001v11.743c-8.422-1.782-16.846-5.759-24.986-11.743H245.999z
	 M265.999,271.744v-11.743h24.986C282.845,265.985,274.421,269.962,265.999,271.744z M329.25,48.002h-63.252v-27.62
	C284.585,21.787,310.625,27.723,329.25,48.002z M245.999,20.383v27.62h-63.251C201.372,27.723,227.413,21.787,245.999,20.383z
	 M20.001,303.317c0.008-1.057,0.321-3.044,2.316-4.484c8.104-5.855,16.005-11.928,23.706-18.205l38.786,28.987
	c1.796,1.343,3.896,1.991,5.979,1.991c3.046,0,6.054-1.387,8.018-4.015c3.306-4.424,2.4-10.69-2.024-13.996l-35.116-26.244
	c32.165-28.452,60.443-60.774,84.505-96.59c7.596,30.889,21.414,60.39,39.487,82.648c-0.258,0.499-0.486,1.02-0.662,1.573
	c-12.931,40.771-33.881,77.665-62.269,109.66l-6.351,7.157c-1.913,2.156-5.217,2.492-7.526,0.768l-86.608-64.729
	C20.272,306.366,19.993,304.374,20.001,303.317z M464.997,401.5v90.499h-61v-54c0-5.522-4.477-10-10-10s-10,4.478-10,10v54H128v-54
	c0-5.522-4.477-10-10-10c-5.523,0-10,4.478-10,10v54h-61V401.5c0-14.543,4.597-28.722,13.01-40.467l36.87,27.556
	c4.535,3.39,9.91,5.04,15.263,5.04c7.119-0.001,14.198-2.921,19.195-8.554l6.351-7.157c28.23-31.817,49.553-68.182,63.479-108.205
	c5.332,4.728,10.919,8.849,16.731,12.243l-8.265,83.885c-1.287,13.063,3.03,26.132,11.845,35.856
	c8.814,9.726,21.396,15.303,34.521,15.303c13.125,0,25.708-5.577,34.521-15.303c8.814-9.725,13.132-22.794,11.845-35.856
	l-8.265-83.885c5.813-3.395,11.401-7.517,16.734-12.246c13.926,40.023,35.25,76.39,63.48,108.208l6.351,7.157
	c4.998,5.634,12.075,8.554,19.195,8.554c5.352,0,10.729-1.65,15.263-5.04l36.875-27.559
	C460.508,372.859,464.997,386.772,464.997,401.5z"/>
<path d="M427.516,245.804c0.016,0.016,0.032,0.032,0.048,0.048c1.963,1.939,4.545,2.917,7.123,2.917
	c2.551,0,5.098-0.958,7.034-2.891c3.892-3.885,3.85-10.244-0.003-14.157l-0.019-0.019c-0.009-0.009-0.019-0.019-0.029-0.029
	c-0.002-0.002-0.005-0.005-0.007-0.008c-0.011-0.01-0.021-0.021-0.032-0.031l-0.016-0.016c-3.909-3.858-10.268-3.908-14.157-0.019
	c-3.89,3.887-3.845,10.246,0.01,14.156C427.484,245.772,427.5,245.788,427.516,245.804z"/>
<path d="M261.999,358.667h-12c-5.523,0-10,4.478-10,10c0,5.522,4.477,10,10,10h12c5.523,0,10-4.478,10-10
	C271.999,363.145,267.522,358.667,261.999,358.667z"/>
<path d="M239.999,336.333c0,5.522,4.477,10,10,10h12c5.523,0,10-4.478,10-10c0-5.522-4.477-10-10-10h-12
	C244.476,326.333,239.999,330.811,239.999,336.333z"/>
<path d="M118,331.94c2.63,0,5.21-1.069,7.07-2.93c1.86-1.861,2.93-4.44,2.93-7.07c0-2.64-1.07-5.21-2.93-7.069
	c-1.86-1.86-4.44-2.931-7.07-2.931c-2.63,0-5.21,1.07-7.07,2.931c-1.86,1.859-2.93,4.439-2.93,7.069c0,2.63,1.07,5.21,2.93,7.07
	C112.79,330.87,115.37,331.94,118,331.94z"/>
<g>
</g>
<g>
</g>
<g>
</g>
<g>
</g>
<g>
</g>
<g>
</g>
<g>
</g>
<g>
</g>
<g>
</g>
<g>
</g>
<g>
</g>
<g>
</g>
<g>
</g>
<g>
</g>
<g>
</g>
</svg>
