<svg height="512pt" viewBox="0 0 512.00075 512" width="512pt" xmlns="http://www.w3.org/2000/svg"><g fill-rule="evenodd"><path d="m164.082031 192.355469 14.140625-42.425781-134.097656-134.09375c-7.777344-7.78125-20.503906-7.78125-28.28125 0-7.777344 7.777343-7.777344 20.503906 0 28.28125zm0 0" fill="#d29976"/><path d="m178.222656 149.929688-14.140625 42.425781 42.425781 42.425781 14.140626-42.425781zm0 0" fill="#c58965"/><path d="m220.648438 192.355469-14.140626 42.425781 21.214844 21.214844 21.210938-21.214844 7.070312-7.070312zm0 0" fill="#d29976"/><path d="m284.289062 255.996094-21.214843 21.210937-7.070313 7.070313 35.355469 35.359375 14.144531-42.425781zm0 0" fill="#d29976"/><path d="m305.503906 277.210938-14.144531 42.425781 42.429687 42.425781 14.140626-42.425781zm0 0" fill="#c58965"/><path d="m347.929688 319.636719-14.140626 42.425781 134.09375 134.09375c7.777344 7.777344 20.503907 7.777344 28.285157 0 7.777343-7.777344 7.777343-20.503906 0-28.28125zm0 0" fill="#d29976"/><path d="m178.21875 362.0625-14.140625-42.425781-148.234375 148.238281c-7.777344 7.777344-7.777344 20.503906 0 28.28125s20.503906 7.777344 28.28125 0zm0 0" fill="#d29976"/><path d="m164.078125 319.636719 14.140625 42.425781 42.429688-42.425781-14.140626-42.425781zm0 0" fill="#c58965"/><path d="m206.507812 277.210938 14.140626 42.425781 35.355468-35.359375 7.070313-7.070313-14.140625-42.425781-21.210938 21.214844zm0 0" fill="#c58965"/><path d="m248.933594 234.78125 14.140625 42.425781 21.214843-21.210937 21.214844-21.214844-14.144531-42.425781zm0 0" fill="#d29976"/><path d="m291.359375 192.355469 14.144531 42.425781 42.425782-42.425781-14.140626-42.425781zm0 0" fill="#c58965"/><path d="m333.789062 149.929688 14.140626 42.425781 148.238281-148.238281c7.777343-7.777344 7.777343-20.503907 0-28.28125-7.78125-7.78125-20.507813-7.78125-28.285157 0zm0 0" fill="#d29976"/></g><path d="m298.429688 255.996094 204.808593-204.808594c5.648438-5.648438 8.761719-13.183594 8.761719-21.210938 0-8.03125-3.113281-15.5625-8.761719-21.210937-5.648437-5.652344-13.183593-8.765625-21.214843-8.765625-8.027344 0-15.5625 3.113281-21.210938 8.761719l-20 20c-3.90625 3.90625-3.90625 10.238281 0 14.144531 3.90625 3.902344 10.234375 3.902344 14.140625 0l20-20c1.875-1.875 4.386719-2.90625 7.070313-2.90625 2.6875 0 5.199218 1.03125 7.070312 2.90625 3.902344 3.898438 3.902344 10.242188 0 14.140625l-136.792969 136.796875-7.070312-21.214844 53.15625-53.15625c3.90625-3.90625 3.90625-10.238281 0-14.140625-3.90625-3.90625-10.234375-3.90625-14.144531 0l-128.238282 128.238281-204.804687-204.808593c-5.652344-5.648438-13.183594-8.761719-21.214844-8.761719-8.027344 0-15.5625 3.113281-21.210937 8.761719-11.699219 11.699219-11.699219 30.730469 0 42.425781l71.667968 71.671875c3.90625 3.902344 10.238282 3.902344 14.144532 0 3.90625-3.90625 3.902343-10.238281 0-14.140625l-71.671876-71.671875c-1.875-1.875-2.90625-4.382813-2.90625-7.070313s1.035157-5.199218 2.90625-7.070312c1.875-1.875 4.386719-2.90625 7.070313-2.90625 2.6875 0 5.199219 1.03125 7.070313 2.90625l129.726562 129.722656-7.070312 21.214844-8.558594-8.558594c-3.90625-3.90625-10.238282-3.90625-14.144532 0-3.902343 3.902344-3.902343 10.234375 0 14.140625l76.570313 76.570313-204.804687 204.804687c-5.652344 5.652344-8.7617192 13.1875-8.7617192 21.214844s3.1093752 15.5625 8.7617192 21.210937c5.648437 5.652344 13.183593 8.765626 21.210937 8.765626 8.03125 0 15.5625-3.113282 21.214844-8.765626l204.804687-204.804687 204.808594 204.804687c5.648438 5.652344 13.183594 8.765626 21.210938 8.765626 8.03125 0 15.5625-3.113282 21.214843-8.765626 5.648438-5.648437 8.761719-13.183593 8.761719-21.210937 0-8.03125-3.113281-15.5625-8.761719-21.214844zm4.371093 60.9375 7.070313-21.210938 26.617187 26.613282-7.070312 21.214843zm-77.78125-15.808594-7.070312-21.214844 16.839843-16.839844s.003907-.003906.003907-.003906c.003906-.003906.003906-.003906.003906-.003906l9.769531-9.769531 7.070313 21.214843zm-42.429687 42.425781-7.066406-21.214843 26.613281-26.613282 7.070312 21.210938zm84.855468-84.855469-7.070312-21.210937 26.613281-26.617187 7.070313 21.214843-16.839844 16.839844s0 0-.003906.003906c0 0-.003906.003907-.003906.003907zm69.042969-69.042968-26.617187 26.617187-7.070313-21.210937 26.617188-26.617188zm-153.898437-21.210938 26.617187 26.617188-7.070312 21.210937-26.613281-26.617187zm35.359375 63.636719 7.070312-21.210937 16.84375 16.84375-14.140625 14.140624zm-180.894531 257.007813c-1.871094 1.875-4.382813 2.90625-7.070313 2.90625s-5.195313-1.03125-7.070313-2.90625c-1.875-1.871094-2.90625-4.382813-2.90625-7.070313s1.035157-5.199219 2.90625-7.070313l136.796876-136.796874 7.066406 21.214843zm247.234374-218.949219 9.773438 9.773437-7.070312 21.214844-16.84375-16.84375zm204.804688 218.949219c-1.871094 1.871093-4.382812 2.902343-7.070312 2.902343-2.683594 0-5.195313-1.03125-7.070313-2.902343l-129.722656-129.722657 7.070312-21.210937 136.792969 136.792968c1.875 1.871094 2.90625 4.382813 2.90625 7.070313 0 2.683594-1.03125 5.199219-2.90625 7.070313zm0 0"/><path d="m419.597656 74.121094c2.558594 0 5.117188-.976563 7.070313-2.929688l.003906-.003906c3.90625-3.90625 3.902344-10.234375-.003906-14.140625-3.902344-3.90625-10.238281-3.902344-14.144531.003906-3.902344 3.902344-3.902344 10.234375 0 14.140625 1.953124 1.953125 4.511718 2.929688 7.074218 2.929688zm0 0"/><path d="m122.871094 151.144531c3.902344-3.90625 3.902344-10.238281 0-14.140625l-.007813-.007812c-3.902343-3.902344-10.230469-3.902344-14.136719.003906-3.90625 3.902344-3.902343 10.238281 0 14.144531 1.953126 1.953125 4.511719 2.925781 7.074219 2.925781 2.558594 0 5.117188-.972656 7.070313-2.925781zm0 0"/></svg>